<svg xmlns="http://www.w3.org/2000/svg" width="512" height="512"><path d="M72.6 166.9h3.6a27501.5 27501.5 0 0 1 19.9 0l12.5-.1a26344.9 26344.9 0 0 1 107.4-.2 28271.7 28271.7 0 0 0 129-.2 5040.3 5040.3 0 0 1 54.3 0c9.8 0 9.8 0 13.5 3 3.8 4.4 3.3 8 3.3 13.5v2.7a3390 3390 0 0 1-.1 28.4h2.5l11.1-.2 4-.2c11.8 0 11.8 0 16.4 4.4 2.4 3.6 2.3 5.4 2.3 9.7v2a887.2 887.2 0 0 1 0 21.2 1504.1 1504.1 0 0 0 .2 26.7v10.2c-.6 3.8-1.8 5.4-4.5 8.2-3.4 2.4-6.5 2.2-10.5 2.2h-7.8l-4-.1-9.7-.1v3.6a1334.1 1334.1 0 0 1 .5 27v2.6c0 4.3-.2 7-3 10.3-3.5 3.5-5.2 3.6-10 3.6h-3.7a27502.9 27502.9 0 0 1-19.9 0l-12.5.1a26344.9 26344.9 0 0 1-107.4.2 28271.7 28271.7 0 0 0-129 .2 5040.3 5040.3 0 0 1-54.3 0c-9.8 0-9.8 0-13.5-3-3.3-4-3.3-6-3.4-11v-2a2078 2078 0 0 1 0-33 16534 16534 0 0 1-.3-78 2163 2163 0 0 0-.1-37.7v-3.6c.8-4.4 2.5-6.1 5.6-9.3 2.6-1.3 4.6-1.1 7.6-1.1ZM68 179c-.6 3-.6 3-.5 6.3v4a7811.9 7811.9 0 0 0 0 21v13a5923.3 5923.3 0 0 0 0 46.6 5368 5368 0 0 0 0 56.8v3.4c.6 3.6 1.6 4.6 4.5 6.9 2.7.6 2.7.6 5.7.5H85a1685.3 1685.3 0 0 1 15.4 0h12.2a6467.4 6467.4 0 0 0 51.6 0 28021.6 28021.6 0 0 0 97.8 0 27166.8 27166.8 0 0 0 132.7 0h6.5c3.4-.6 4.6-1.8 6.7-4.5.6-3 .6-3 .5-6.3v-4a7811.9 7811.9 0 0 0 0-21v-13a5923.3 5923.3 0 0 0 0-46.6 5368 5368 0 0 0 0-56.8v-3.4c-.6-3.6-1.6-4.6-4.5-6.9-2.7-.6-2.7-.6-5.7-.5H391a1685.3 1685.3 0 0 1-15.4 0h-12.2a6467.4 6467.4 0 0 0-43.2 0h-2.8a292653.2 292653.2 0 0 1-161.4 0h-2.7a9740.7 9740.7 0 0 1-72 0h-6.5c-3.4.6-4.6 1.8-6.7 4.5Zm348 44v66h26c2.3-3.4 2.3-4.7 2.3-8.8v-7.6a4590.7 4590.7 0 0 1 0-40.8v-3.2c-.1-2.8-.1-2.8-2.3-5.6h-26Z"/><path d="M292 208c.4 2.6.4 2.6 0 6-1.3 1.4-1.3 1.4-3 2.8l-2 1.6a336.7 336.7 0 0 1-15.5 11.4l-2.3 1.6-5.7 4.2-3 2.2-2.5 2c-2 1.2-2 1.2-4 1.2a16121.9 16121.9 0 0 0 16.7 30.7c1.6 3 1.5 5 1.3 8.3-4.4 2.3-8.7 4-13.5 5.4l-2.2.6a1967.5 1967.5 0 0 1-22.5 6.6 4262.9 4262.9 0 0 0-35.4 10.4l-2 .6c-3.6 1-6.7 1.8-10.4 1.4-2-2-2-2-2.4-4.4.5-3.4 1.6-4.2 4.3-6.4l2.5-2.1 2.6-2.1 2.3-1.9 7.7-6.1 8.1-6.5 4-3.2 2.9-2.3a49.2 49.2 0 0 0-7.5-15.3 11319.2 11319.2 0 0 0-8-13.3A16 16 0 0 1 200 231c7.7-3.2 15.8-5.2 23.8-7.4a10536.3 10536.3 0 0 0 16.8-4.5l14.7-4 11.4-3 2.2-.6a21145.7 21145.7 0 0 1 12.8-3.6c3.8-1 6.5-.7 10.3.1Zm-35.6 16.2-2.9.7-3.1.9-3.2.8a5620.3 5620.3 0 0 0-23.6 6.4l-3.1.8-2.9.8-2.6.7c-2.2.6-2.2.6-4 2.7a18014.6 18014.6 0 0 0 11.6 19.2l1.3 2a317 317 0 0 0 2.4 3.8c1.5 2.5 2.6 4.7 3.3 7.6-1 3.8-3.8 5.6-6.8 7.9l-3.5 2.8-1.5 1.2c-2.4 2-4.6 4.3-6.8 6.5a556.2 556.2 0 0 0 42.2-11.8c.7-.2 1.4-.3 2-.6 1.7-.4 3.2-1 4.8-1.6l1-2c-1.3-2.8-1.3-2.8-3.1-6l-1-1.7a1054 1054 0 0 0-9.3-16.4L246 246l-1.3-2c-1-2.8-.7-4.3.3-7 1.7-1.6 1.7-1.6 3.8-3l2.3-1.6 2.4-1.6a1202 1202 0 0 0 6.8-4.6c1.8-1.1 1.8-1.1 2.7-3.2-2.4 0-4.3.5-6.6 1.2Z"/></svg>