<svg xmlns="http://www.w3.org/2000/svg" width="512" height="512"><path d="M141.3 117.5c30.5 28.4 30.7 94.9 36.7 133.4 5.5 71.3 5.5 71.3 33 133.1 2.5.5 2.5.5 5 0 21.4-20.4 22.9-72.5 27.4-100.4a272611450.6 272611450.6 0 0 0 1.5-9.2l.7-3.9c.4-3.2.6-6.2.4-9.5l-2-2c-.3-3-.3-3 0-6l2-2h3l.3-2.9c1.4-12.6 3.4-25 5.4-37.5l.6-3.2c12.4-74 12.4-74 28.3-89 5-3.3 10.7-3.2 16.4-2.4 8.6 4 13.5 13.6 17 22 13.5 36.2 17.6 76.4 23.4 114.3a16004.6 16004.6 0 0 0 4.2 27.6c2.3 15.8 5 31.4 8 47l.5 2.2c5 29.6 5 29.6 19.9 54.9 2.5.5 2.5.5 5 0 25.5-23.2 26.1-90.8 31-123a449111228.7 449111228.7 0 0 1-9.5.3c-2 0-2 0-5.5-.3-2-3-2-3-1.7-6.1.7-2.9.7-2.9 1.7-3.9a237.4 237.4 0 0 1 17 0l.3-3c1.4-12.4 3.3-24.7 5.4-37.1l.5-3.2c12.9-76.8 12.9-76.8 30.8-90.7 2.8-1 4.7-1.2 7.6-1.3h2.3l2.1.3c2 3 2 3 2.1 6-1.1 3-1.1 3-2.8 4.1l-4.3 2c-6.7 3.2-9.4 12.4-11.7 19-12.7 37.6-16.8 78.3-22.9 117.5-11.9 77.6-11.9 77.6-20.4 103.4l-1.2 3.8c-3.4 9.6-8.3 19.5-17.8 24.2-4.7.4-9.3.6-13.8-1-34.6-30.8-33.9-107.6-40.4-150.3-5-62.4-5-62.4-29.8-116.7-2.4-.7-2.4-.7-5 0-22.5 20.8-23.5 73.5-28 101.6l-.6 3.6a2974.5 2974.5 0 0 0-1.6 9.9l-.4 2.6c-.4 2.3-.4 2.3-1.4 5.3l2.3-.1h3l3.1-.2 2.6.3c2 3 2 3 1.7 6.1-.7 2.9-.7 2.9-1.7 3.9a144.5 144.5 0 0 1-9.4.8l-2.6.2-.3 2.1c-18.1 114.2-18.1 114.2-34.5 128.6-5.4 3.9-9.6 3.8-16.2 3.3-6.5-2.4-11.4-9.4-14.6-15.4-15-32.7-18.8-71.5-24.1-106.8l-.4-2.5-.4-2.3c0-.7-.2-1.4-.3-2-.2-2-.2-2-.2-6h-1.9l-8.5.1h-3l-2.8.1h-2.6c-2.2-.2-2.2-.2-4.2-2.2-.3-3-.3-3 0-6 2-2 2-2 4-2.2H156.6l2.7.1 6.7.1c-5.5-66-5.5-66-31-123-2.4-.7-2.4-.7-5 0-22.5 20.8-23.5 73.5-28 101.6l-.6 3.6-1 6.8-.6 3-.4 2.7C99 248 99 248 98 251h2.2l9.7-.1h3.4l3.3-.1h3c2.4.2 2.4.2 4.4 2.2.3 3 .3 3 0 6-2.6 2.6-4 2.3-7.7 2.4l-3.4.1-3.5.1-3.6.1-8.8.3-.3 1.9c-18 113.8-18 113.8-35.5 129.6-3.1 2.1-4.9 2.7-8.7 2.7h-2.4C48 396 48 396 46 394c-.4-3-.4-3 0-6 2.2-1.7 2.2-1.7 5-3 4.7-2.2 6.7-5 8.9-9.6l1-2.1c7-15.2 10.2-31.9 13.3-48.2l.5-2.3c4.2-21.8 7.5-43.7 10.8-65.7 7.1-46.7 7.1-46.7 11.2-69.2l.5-2.3c9.7-53.4 9.7-53.4 26.8-68.6 5.7-1.9 11.8-2 17.3.5ZM451.4 250.8h10c2.6.2 2.6.2 4.6 2.2.3 3 .3 3 0 6-3.2 3.2-6.7 2.3-11 2.3h-13.5l-2.5-.3c-2-3-2-3-1.7-6.1 1.5-6.4 8.6-4 14.1-4Z"/><path d="M354 250.7h13.5l2.5.3c2 3 2 3 1.7 6.1-.7 2.9-.7 2.9-1.7 3.9-4.1.3-8.3.2-12.4.2h-10c-2.6-.2-2.6-.2-4.6-2.2-.3-3-.3-3 0-6 3.2-3.2 6.7-2.3 11-2.3ZM307.4 250.8h10c2.6.2 2.6.2 4.6 2.2.3 3 .3 3 0 6-3.2 3.2-6.7 2.3-11 2.3h-13.5l-2.5-.3c-2-3-2-3-1.7-6.1 1.5-6.4 8.6-4 14.1-4ZM208.4 250.8h10c2.6.2 2.6.2 4.6 2.2.3 3 .3 3 0 6-3.2 3.2-6.7 2.3-11 2.3h-13.5l-2.5-.3c-2-3-2-3-1.7-6.1 1.5-6.4 8.6-4 14.1-4ZM57 250.7h13.5l2.5.3c2 3 2 3 1.7 6.1C74 260 74 260 73 261c-4.1.3-8.3.2-12.4.2h-10C48 261 48 261 46 259c-.3-3-.3-3 0-6 3.2-3.2 6.7-2.3 11-2.3Z"/></svg>